<svg xmlns="http://www.w3.org/2000/svg" viewBox="0 0 1280 640" width="1280" height="640">
    <defs>
        <pattern id="dot-grid" width="24" height="24" patternUnits="userSpaceOnUse">
            <circle cx="2" cy="2" r="1.5" fill="#334155" opacity="0.4" />
        </pattern>

        <filter id="glass-blur" x="-20%" y="-20%" width="140%" height="140%">
            <feGaussianBlur stdDeviation="10" result="blur" />
            <feComposite in="SourceGraphic" in2="blur" operator="over" />
        </filter>
    </defs>

	<rect width="100%" height="100%" fill="#020617" />
    <rect width="100%" height="100%" fill="url(#dot-grid)" />

	<g transform="translate(5, 125)">
      <g transform="translate(80, 65)">
          <rect x="0" y="0" width="72" height="72" rx="14" fill="#0F172A" stroke="#1E293B" stroke-width="2" />
          <path d="M 13 22 L 27 35 L 13 48" fill="none" stroke="#38BDF8" stroke-width="4" stroke-linecap="round" stroke-linejoin="round" />
          <path d="M 35 52 L 55 52" fill="none" stroke="#A855F7" stroke-width="4" stroke-linecap="round">
              <animate attributeName="opacity" values="1;0" calcMode="discrete" dur="1s" repeatCount="indefinite" />
          </path>
      </g>
  
      <text x="80" y="190" font-family="system-ui, -apple-system, BlinkMacSystemFont, 'Segoe UI', Roboto, sans-serif" font-weight="800" font-size="52" letter-spacing="-1.5">
          <tspan fill="#FFFFFF">Agent </tspan>
          <tspan fill="#A855F7">Powerups</tspan>
      </text>
  
      <text x="80" y="235" font-family="system-ui, -apple-system, sans-serif" font-size="20" font-weight="500" fill="#E2E8F0">
          The Oh My Zsh for coding agents.
      </text>
      <text x="80" y="265" font-family="system-ui, -apple-system, sans-serif" font-size="16" fill="#94A3B8">
          Local-first toolkit for workflows, skills, commands &amp; MCP.
      </text>
  
  
      <g stroke="#1E293B" stroke-width="2" fill="none">
          <path d="M 825 76 L 825 110" /> <path d="M 1025 76 L 1025 110" /> <path d="M 610 148 L 640 148" /> <path d="M 610 208 L 640 208" /> <path d="M 845 280 L 845 250" /> <path d="M 1095 280 L 1095 250" /> </g>
  
      <g stroke-width="2" fill="none" stroke-linecap="round">
          <path d="M 825 76 L 825 110" stroke="#38BDF8" stroke-dasharray="4 8">
              <animate attributeName="stroke-dashoffset" from="12" to="0" dur="1s" repeatCount="indefinite" />
          </path>
          <path d="M 1025 76 L 1025 110" stroke="#A855F7" stroke-dasharray="4 8">
              <animate attributeName="stroke-dashoffset" from="12" to="0" dur="1s" repeatCount="indefinite" />
          </path>
          <path d="M 610 148 L 640 148" stroke="#F472B6" stroke-dasharray="4 8">
              <animate attributeName="stroke-dashoffset" from="12" to="0" dur="1s" repeatCount="indefinite" />
          </path>
          <path d="M 610 208 L 640 208" stroke="#34D399" stroke-dasharray="4 8">
              <animate attributeName="stroke-dashoffset" from="12" to="0" dur="1s" repeatCount="indefinite" />
          </path>
          <path d="M 845 280 L 845 250" stroke="#FBBF24" stroke-dasharray="4 8">
              <animate attributeName="stroke-dashoffset" from="12" to="0" dur="1s" repeatCount="indefinite" />
          </path>
          <path d="M 1095 280 L 1095 250" stroke="#818CF8" stroke-dasharray="4 8">
              <animate attributeName="stroke-dashoffset" from="12" to="0" dur="1s" repeatCount="indefinite" />
          </path>
      </g>
  
      <g r="3.5">
          <circle cx="825" cy="110" fill="#38BDF8" />
          <circle cx="1025" cy="110" fill="#A855F7" />
          <circle cx="640" cy="148" fill="#F472B6" />
          <circle cx="640" cy="208" fill="#34D399" />
          <circle cx="845" cy="250" fill="#FBBF24" />
          <circle cx="1095" cy="250" fill="#818CF8" />
  
          <circle cx="825" cy="76" fill="#38BDF8" />
          <circle cx="1025" cy="76" fill="#A855F7" />
          <circle cx="610" cy="148" fill="#F472B6" />
          <circle cx="610" cy="208" fill="#34D399" />
          <circle cx="845" cy="280" fill="#FBBF24" />
          <circle cx="1095" cy="280" fill="#818CF8" />
      </g>
  
        <rect x="640" y="110" width="540" height="140" rx="10" fill="#020617" stroke="#334155" stroke-width="1.5" />
        <path d="M 640 120 Q 640 110 650 110 L 1170 110 Q 1180 110 1180 120 L 1180 136 L 640 136 Z" fill="#0F172A" stroke="#334155" stroke-width="1.5" />
        <circle cx="660" cy="123" r="5" fill="#EF4444" />
        <circle cx="676" cy="123" r="5" fill="#F59E0B" />
        <circle cx="692" cy="123" r="5" fill="#10B981" />
        <text x="910" y="127" font-family="system-ui, -apple-system, sans-serif" font-size="12" font-weight="500" fill="#64748B" text-anchor="middle">apx master terminal</text>
        
        <g transform="translate(660, 148)">
            <text y="15" font-family="ui-monospace, SFMono-Regular, Menlo, Monaco, Consolas, monospace" font-size="15" font-weight="500">
                <tspan fill="#38BDF8">❯</tspan>
                <tspan fill="#fa6b12"> npm </tspan>
			<tspan fill="#ffffff">install </tspan>
			<tspan fill="#fff200">-g </tspan>
                <tspan fill="#ffffff">agent-powerups</tspan>
            </text>
	  		<text y="45" font-family="ui-monospace, SFMono-Regular, Menlo, Monaco, Consolas, monospace" font-size="15" font-weight="500">
                  <tspan fill="#38BDF8">❯</tspan>
                  <tspan fill="#fa6b12"> apx </tspan>
                  <tspan fill="#ffffff">install </tspan>
                  <tspan fill="#F472B6">claude </tspan>
                  <tspan fill="#A855F7">--full</tspan>
              </text>
              <text y="70" font-family="ui-monospace, SFMono-Regular, Menlo, Monaco, Consolas, monospace" font-size="13" fill="#94A3B8">
                  <tspan fill="#34D399">✔</tspan> Loaded all skills successfully into ~/.claude/skills/
              </text>
              <text y="92" font-family="ui-monospace, SFMono-Regular, Menlo, Monaco, Consolas, monospace" font-size="13" fill="#94A3B8">
                  <tspan fill="#34D399">✔</tspan> Loaded all plugins successfully into ~/.claude/plugins/
              </text>
              <!-- <text y="92" font-family="ui-monospace, SFMono-Regular, Menlo, Monaco, Consolas, monospace" font-size="14" fill="#94A3B8">
                  <tspan fill="#34D399">✔</tspan> Ready. Run <tspan fill="#E2E8F0">apx start</tspan> to begin.
              </text> -->
        </g>
  
      <g font-family="system-ui, -apple-system, sans-serif" font-size="13" font-weight="600" fill="#E2E8F0">
          
          <g transform="translate(775, 40)">
              <rect width="100" height="36" rx="18" fill="#0F172A" stroke="#334155" stroke-width="1.5" />
              <circle cx="20" cy="18" r="4" fill="#38BDF8" />
              <text x="38" y="22">skills</text>
          </g>
  
          <g transform="translate(975, 40)">
              <rect width="100" height="36" rx="18" fill="#0F172A" stroke="#334155" stroke-width="1.5" />
              <circle cx="16" cy="18" r="4" fill="#A855F7" />
              <text x="28" y="22.5">MCP</text>
          </g>
  
          <g transform="translate(510, 130)">
              <rect width="100" height="36" rx="18" fill="#0F172A" stroke="#334155" stroke-width="1.5" />
              <circle cx="16" cy="18" r="4" fill="#F472B6" />
              <text x="36" y="22">hooks</text>
          </g>
  
          <g transform="translate(505, 190)">
              <rect width="105" height="36" rx="18" fill="#0F172A" stroke="#334155" stroke-width="1.5" />
              <circle cx="16" cy="18" r="4" fill="#34D399" />
              <text x="27" y="22">commands</text>
          </g>
  
          <g transform="translate(795, 280)">
              <rect width="100" height="36" rx="18" fill="#0F172A" stroke="#334155" stroke-width="1.5" />
              <circle cx="16" cy="18" r="4" fill="#FBBF24" />
              <text x="28" y="22.5">plugins</text>
          </g>
  
          <rect x="1055" y="290" width="100" height="36" rx="18" fill="#020617" stroke="#1E293B" stroke-width="1" />
          <rect x="1050" y="285" width="100" height="36" rx="18" fill="#0F172A" stroke="#334155" stroke-width="1.5" />
          <g transform="translate(1045, 280)">
              <rect width="100" height="36" rx="18" fill="#1E293B" stroke="#475569" stroke-width="1.5" />
              <circle cx="16" cy="18" r="4" fill="#818CF8" />
              <text x="28" y="22.5">profiles</text>
          </g>
      </g>
	</g>
</svg>